<svg xmlns="http://www.w3.org/2000/svg" width="20.914" height="24" viewBox="0 0 20.914 24">
  <g id="logo_home" transform="translate(-32.915 0)">
    <g id="Group_45" data-name="Group 45" transform="translate(40.829 4.937)">
      <path id="Path_6" data-name="Path 6" d="M202.445,110.689a.7.7,0,0,1-.659-.942l1.44-3.957a.7.7,0,0,1,1.319.48l-1.44,3.957A.7.7,0,0,1,202.445,110.689Z" transform="translate(-201.743 -105.328)" fill="#b31919"/>
      <path id="Path_7" data-name="Path 7" d="M258.721,131.173a.7.7,0,0,1-.659-.942l1.44-3.957a.7.7,0,0,1,1.319.48l-1.44,3.957A.7.7,0,0,1,258.721,131.173Z" transform="translate(-255.381 -124.852)" fill="#b31919"/>
    </g>
    <g id="Group_46" data-name="Group 46" transform="translate(38.692 0)">
      <path id="Path_8" data-name="Path 8" d="M161.657,6.821a.7.7,0,0,1-.693-.6l-.535-3.587a1.445,1.445,0,0,0-2.857.429,1.428,1.428,0,0,0,.935,1.161.7.7,0,1,1-.48,1.319A2.863,2.863,0,0,1,157.32.552a2.847,2.847,0,0,1,4.5,1.876l.535,3.588a.7.7,0,0,1-.695.805Z" transform="translate(-156.153 0)" fill="#b31919"/>
      <path id="Path_9" data-name="Path 9" d="M262.567,57.719a2.85,2.85,0,0,1-.975-.172.7.7,0,1,1,.48-1.319,1.444,1.444,0,1,0-.462-2.439l-2.7,2.39a.7.7,0,1,1-.93-1.052l2.7-2.39a2.847,2.847,0,1,1,1.887,4.982Z" transform="translate(-252.977 -49.583)" fill="#b31919"/>
    </g>
    <g id="Group_47" data-name="Group 47" transform="translate(40.071 11.367)">
      <path id="Path_10" data-name="Path 10" d="M246.159,255.139a.7.7,0,0,1-.7-.7V243.208a.7.7,0,0,1,1.4,0v11.229A.7.7,0,0,1,246.159,255.139Z" transform="translate(-242.65 -242.506)" fill="#b31919"/>
      <path id="Path_11" data-name="Path 11" d="M186.271,255.139a.7.7,0,0,1-.7-.7V243.208a.7.7,0,1,1,1.4,0v11.229A.7.7,0,0,1,186.271,255.139Z" transform="translate(-185.569 -242.506)" fill="#b31919"/>
    </g>
    <path id="Path_12" data-name="Path 12" d="M52.444,58.207,36.616,52.446a2.108,2.108,0,0,0-2.7,1.258l-.96,2.638a.7.7,0,0,0,.419.9l10.968,3.992H33.755a.7.7,0,0,0-.7.7v9.825a2.108,2.108,0,0,0,2.105,2.105H49.194A2.108,2.108,0,0,0,51.3,71.761v-8l.543.2a.7.7,0,0,0,.9-.419l.96-2.638A2.108,2.108,0,0,0,52.444,58.207ZM49.9,71.761a.7.7,0,0,1-.7.7H35.158a.7.7,0,0,1-.7-.7V62.638H48.2l1.694.617v8.507Zm2.487-11.336-.72,1.978L34.517,56.163l.72-1.978a.7.7,0,0,1,.9-.419l15.827,5.761A.7.7,0,0,1,52.383,60.426Z" transform="translate(0 -49.867)" fill="#b31919"/>
  </g>
</svg>
