<svg id="orders_ac" xmlns="http://www.w3.org/2000/svg" width="24" height="24" viewBox="0 0 24 24">
  <rect id="Rectangle_4212" data-name="Rectangle 4212" width="24" height="24" fill="#fff" opacity="0"/>
  <path id="Path_29" data-name="Path 29" d="M9,5H7A2,2,0,0,0,5,7V19a2,2,0,0,0,2,2H17a2,2,0,0,0,2-2V7a2,2,0,0,0-2-2H15M9,5a2,2,0,0,0,2,2h2a2,2,0,0,0,2-2M9,5a2,2,0,0,1,2-2h2a2,2,0,0,1,2,2M9,14l2,2,4-4" fill="none" stroke="#b31919" stroke-linecap="round" stroke-linejoin="round" stroke-width="1.5"/>
</svg>
