<svg id="shape_option2" xmlns="http://www.w3.org/2000/svg" width="16" height="16" viewBox="0 0 16 16">
  <g id="Group_3727" data-name="Group 3727">
    <g id="Group_3726" data-name="Group 3726">
      <path id="Path_5894" data-name="Path 5894" d="M5.525,0H1.85A1.852,1.852,0,0,0,0,1.85V5.525a1.852,1.852,0,0,0,1.85,1.85H5.525a1.852,1.852,0,0,0,1.85-1.85V1.85A1.852,1.852,0,0,0,5.525,0Zm.6,5.525a.6.6,0,0,1-.6.6H1.85a.6.6,0,0,1-.6-.6V1.85a.6.6,0,0,1,.6-.6H5.525a.6.6,0,0,1,.6.6Z" fill="#292929"/>
    </g>
  </g>
  <g id="Group_3729" data-name="Group 3729" transform="translate(8.625)">
    <g id="Group_3728" data-name="Group 3728">
      <path id="Path_5895" data-name="Path 5895" d="M281.5,0h-3.625A1.877,1.877,0,0,0,276,1.875V5.5a1.877,1.877,0,0,0,1.875,1.875H281.5A1.877,1.877,0,0,0,283.375,5.5V1.875A1.877,1.877,0,0,0,281.5,0Zm.625,5.5a.626.626,0,0,1-.625.625h-3.625a.626.626,0,0,1-.625-.625V1.875a.626.626,0,0,1,.625-.625H281.5a.626.626,0,0,1,.625.625Z" transform="translate(-276)" fill="#292929"/>
    </g>
  </g>
  <g id="Group_3731" data-name="Group 3731" transform="translate(0 8.625)">
    <g id="Group_3730" data-name="Group 3730">
      <path id="Path_5896" data-name="Path 5896" d="M5.525,276H1.85A1.852,1.852,0,0,0,0,277.85v3.674a1.852,1.852,0,0,0,1.85,1.85H5.525a1.852,1.852,0,0,0,1.85-1.85V277.85A1.852,1.852,0,0,0,5.525,276Zm.6,5.525a.6.6,0,0,1-.6.6H1.85a.6.6,0,0,1-.6-.6V277.85a.6.6,0,0,1,.6-.6H5.525a.6.6,0,0,1,.6.6Z" transform="translate(0 -276)" fill="#292929"/>
    </g>
  </g>
  <g id="Group_3733" data-name="Group 3733" transform="translate(8.625 8.625)">
    <g id="Group_3732" data-name="Group 3732">
      <path id="Path_5897" data-name="Path 5897" d="M281.5,276h-3.625A1.877,1.877,0,0,0,276,277.875V281.5a1.877,1.877,0,0,0,1.875,1.875H281.5a1.877,1.877,0,0,0,1.875-1.875v-3.625A1.877,1.877,0,0,0,281.5,276Zm.625,5.5a.626.626,0,0,1-.625.625h-3.625a.626.626,0,0,1-.625-.625v-3.625a.626.626,0,0,1,.625-.625H281.5a.626.626,0,0,1,.625.625Z" transform="translate(-276 -276)" fill="#292929"/>
    </g>
  </g>
</svg>
