<svg id="delet_big" xmlns="http://www.w3.org/2000/svg" width="42.174" height="42.174" viewBox="0 0 42.174 42.174">
  <path id="Path_7022" data-name="Path 7022" d="M0,0H42.174V42.174H0Z" fill="none"/>
  <line id="Line_16" data-name="Line 16" x2="28" transform="translate(7.087 12.471)" fill="none" stroke="#b31919" stroke-linecap="round" stroke-linejoin="round" stroke-width="2"/>
  <line id="Line_17" data-name="Line 17" y2="10.769" transform="translate(17.856 18.932)" fill="none" stroke="#b31919" stroke-linecap="round" stroke-linejoin="round" stroke-width="2"/>
  <line id="Line_18" data-name="Line 18" y2="10.769" transform="translate(24.318 18.932)" fill="none" stroke="#b31919" stroke-linecap="round" stroke-linejoin="round" stroke-width="2"/>
  <path id="Path_7023" data-name="Path 7023" d="M5,7,6.757,28.087A3.514,3.514,0,0,0,10.272,31.6H24.33a3.514,3.514,0,0,0,3.514-3.514L29.6,7" transform="translate(3.786 5.301)" fill="none" stroke="#b31919" stroke-linecap="round" stroke-linejoin="round" stroke-width="2"/>
  <path id="Path_7024" data-name="Path 7024" d="M9,10.029V4.757A1.757,1.757,0,0,1,10.757,3h7.029a1.757,1.757,0,0,1,1.757,1.757v5.272" transform="translate(6.815 2.272)" fill="none" stroke="#b31919" stroke-linecap="round" stroke-linejoin="round" stroke-width="2"/>
</svg>
