<svg xmlns="http://www.w3.org/2000/svg" width="96" height="96" viewBox="0 0 96 96">
  <g id="avatar" transform="translate(-142 -112)">
    <g id="Ellipse_34" data-name="Ellipse 34" transform="translate(142 112)" fill="#b2b2b2" stroke="#fff" stroke-width="1">
      <circle cx="48" cy="48" r="48" stroke="none"/>
      <circle cx="48" cy="48" r="47.5" fill="none"/>
    </g>
    <g id="user_7_" data-name="user (7)" transform="translate(168.044 136.284)" opacity="0.5">
      <path id="Path_7144" data-name="Path 7144" d="M19.337,20.774a9.859,9.859,0,1,0-9.859-9.859,9.859,9.859,0,0,0,9.859,9.859Zm0-16.7A6.836,6.836,0,1,1,12.5,10.913,6.836,6.836,0,0,1,19.337,4.078Z" transform="translate(2.825)"/>
      <path id="Path_7145" data-name="Path 7145" d="M22.162,16.671c-10.039,0-18.206,9.038-18.206,20.148a1.512,1.512,0,0,0,3.023,0c0-9.443,6.81-17.125,15.183-17.125s15.183,7.682,15.183,17.125a1.512,1.512,0,0,0,3.023,0c0-11.11-8.167-20.148-18.206-20.148Z" transform="translate(0 7.989)"/>
    </g>
  </g>
</svg>
