<svg xmlns="http://www.w3.org/2000/svg" width="24" height="24" viewBox="0 0 24 24">
  <g id="add_rating" transform="translate(-102 -408)">
    <rect id="Rectangle_4198" data-name="Rectangle 4198" width="24" height="24" rx="1" transform="translate(102 408)" fill="#fff" opacity="0"/>
    <g id="Path_22" data-name="Path 22" transform="translate(103 410)" fill="none">
      <path d="M10.625,0l2.656,7.438,7.969.2-6.327,4.8L17.192,20l-6.567-4.472L4.058,20l2.269-7.562L0,7.639l7.969-.2Z" stroke="none"/>
      <path d="M 10.625 2.973268508911133 L 8.910490036010742 7.774020195007324 L 8.679789543151855 8.42002010345459 L 7.994039535522461 8.437370300292969 L 2.877897262573242 8.566822052001953 L 6.931369781494141 11.64091014862061 L 7.484350204467773 12.06027984619141 L 7.284930229187012 12.72504043579102 L 5.826682090759277 17.58582878112793 L 10.06210041046143 14.70133018493652 L 10.625 14.31797981262207 L 11.18789958953857 14.70133018493652 L 15.42331695556641 17.58582878112793 L 13.96506977081299 12.72504043579102 L 13.76564979553223 12.06027984619141 L 14.31863021850586 11.64091014862061 L 18.37210273742676 8.566822052001953 L 13.25596046447754 8.437370300292969 L 12.57021045684814 8.42002010345459 L 12.33950996398926 7.774020195007324 L 10.625 2.973268508911133 M 10.625 0 L 13.28125 7.437689781188965 L 21.25 7.639320373535156 L 14.92290019989014 12.43768978118896 L 17.19161033630371 20 L 10.625 15.52786064147949 L 4.058389663696289 20 L 6.327099800109863 12.43768978118896 L 0 7.639320373535156 L 7.96875 7.437689781188965 L 10.625 0 Z" stroke="none" fill="#888"/>
    </g>
    <path id="Path_21" data-name="Path 21" d="M4,0A4,4,0,0,1,8,4L5.894,6.658l-.522-.22C4.839,7.275,5.4,8,4,8,1.791,8-1.035,5.917,0,4S1.791,0,4,0Z" transform="translate(114 412)" fill="#f3f3f3"/>
    <g id="Union_1" data-name="Union 1" transform="translate(837 411)" fill="#888">
      <path d="M -718.4996948242188 8.250100135803223 C -718.9135131835938 8.250100135803223 -719.2501220703125 7.913469791412354 -719.2501220703125 7.49970006942749 L -719.2501220703125 5.250400066375732 L -721.5003051757812 5.250400066375732 C -721.91357421875 5.250400066375732 -722.2498168945312 4.913770198822021 -722.2498168945312 4.5 C -722.2498168945312 4.086229801177979 -721.91357421875 3.749599933624268 -721.5003051757812 3.749599933624268 L -719.2501220703125 3.749599933624268 L -719.2501220703125 1.500300049781799 C -719.2501220703125 1.086529970169067 -718.9135131835938 0.7498999834060669 -718.4996948242188 0.7498999834060669 C -718.08642578125 0.7498999834060669 -717.750244140625 1.086529970169067 -717.750244140625 1.500300049781799 L -717.750244140625 3.749599933624268 L -715.5 3.749599933624268 C -715.0862426757812 3.749599933624268 -714.7496337890625 4.086229801177979 -714.7496337890625 4.5 C -714.7496337890625 4.913770198822021 -715.0862426757812 5.250400066375732 -715.5 5.250400066375732 L -717.750244140625 5.250400066375732 L -717.750244140625 7.49970006942749 C -717.750244140625 7.913469791412354 -718.08642578125 8.250100135803223 -718.4996948242188 8.250100135803223 Z" stroke="none"/>
      <path d="M -718.4996948242188 8.000100135803223 C -718.2243041992188 8.000100135803223 -718.000244140625 7.776000022888184 -718.000244140625 7.49970006942749 L -718.000244140625 5.000400066375732 L -715.5 5.000400066375732 C -715.2236938476562 5.000400066375732 -714.9996337890625 4.776299953460693 -714.9996337890625 4.5 C -714.9996337890625 4.223700046539307 -715.2236938476562 3.999599933624268 -715.5 3.999599933624268 L -718.000244140625 3.999599933624268 L -718.000244140625 1.500300049781799 C -718.000244140625 1.223999977111816 -718.2243041992188 0.9998999834060669 -718.4996948242188 0.9998999834060669 C -718.7760009765625 0.9998999834060669 -719.0001220703125 1.223999977111816 -719.0001220703125 1.500300049781799 L -719.0001220703125 3.999599933624268 L -721.5003051757812 3.999599933624268 C -721.7756958007812 3.999599933624268 -721.9998168945312 4.223700046539307 -721.9998168945312 4.5 C -721.9998168945312 4.776299953460693 -721.7756958007812 5.000400066375732 -721.5003051757812 5.000400066375732 L -719.0001220703125 5.000400066375732 L -719.0001220703125 7.49970006942749 C -719.0001220703125 7.776000022888184 -718.7760009765625 8.000100135803223 -718.4996948242188 8.000100135803223 M -718.4996948242188 8.500100135803223 C -719.0513305664062 8.500100135803223 -719.5001220703125 8.05132007598877 -719.5001220703125 7.49970006942749 L -719.5001220703125 5.500400066375732 L -721.5003051757812 5.500400066375732 C -722.0514526367188 5.500400066375732 -722.4998168945312 5.051620006561279 -722.4998168945312 4.5 C -722.4998168945312 3.948379993438721 -722.0514526367188 3.499599933624268 -721.5003051757812 3.499599933624268 L -719.5001220703125 3.499599933624268 L -719.5001220703125 1.500300049781799 C -719.5001220703125 0.9486799836158752 -719.0513305664062 0.4999000132083893 -718.4996948242188 0.4999000132083893 C -717.9486083984375 0.4999000132083893 -717.500244140625 0.9486799836158752 -717.500244140625 1.500300049781799 L -717.500244140625 3.499599933624268 L -715.5 3.499599933624268 C -714.9484252929688 3.499599933624268 -714.4996337890625 3.948379993438721 -714.4996337890625 4.5 C -714.4996337890625 5.051620006561279 -714.9484252929688 5.500400066375732 -715.5 5.500400066375732 L -717.500244140625 5.500400066375732 L -717.500244140625 7.49970006942749 C -717.500244140625 8.05132007598877 -717.9486083984375 8.500100135803223 -718.4996948242188 8.500100135803223 Z" stroke="none" fill="#f3f3f3"/>
    </g>
  </g>
</svg>
