<svg xmlns="http://www.w3.org/2000/svg" width="24" height="24" viewBox="0 0 24 24">
  <g id="logo_bar" transform="translate(-8530 -2851)">
    <path id="Path_7741" data-name="Path 7741" d="M4.688,0H19.313A4.688,4.688,0,0,1,24,4.688V19.313A4.688,4.688,0,0,1,19.313,24H4.688A4.688,4.688,0,0,1,0,19.313V4.688A4.688,4.688,0,0,1,4.688,0Z" transform="translate(8530 2851)" fill="#fff" opacity="0"/>
    <path id="Path_7752" data-name="Path 7752" d="M1342.643,234.807l-10.728,0,.374-2.393h6.836l.242,1.418h3.081l-.76-4.455h-2.61v-.661a3.325,3.325,0,0,0-3.321-3.321h0a3.325,3.325,0,0,0-3.321,3.321v.661h-2.746l-1.331,8.51,11.707-.139.39,2.266h-9.406l.2-1.149-3.084.015-.711,4.172h16.609Zm-9.494-6.094a2.608,2.608,0,0,1,5.216,0v.661h-5.216Z" transform="translate(7206.243 2628.78)" fill="#b31919"/>
  </g>
</svg>
