<svg xmlns="http://www.w3.org/2000/svg" width="56" height="56" viewBox="0 0 56 56">
  <g id="main_logo_sign_in" data-name="main logo_sign in" transform="translate(-8530 -2851)">
    <path id="Path_7741" data-name="Path 7741" d="M10.938,0H45.063A10.937,10.937,0,0,1,56,10.938V45.063A10.937,10.937,0,0,1,45.063,56H10.938A10.937,10.937,0,0,1,0,45.063V10.938A10.937,10.937,0,0,1,10.938,0Z" transform="translate(8530 2851)" fill="#fff" opacity="0"/>
    <path id="Path_7752" data-name="Path 7752" d="M1362.9,247.36l-25.031,0,.873-5.584h15.95l.565,3.309h7.19l-1.775-10.4h-6.089v-1.543a7.758,7.758,0,0,0-7.75-7.75h0a7.758,7.758,0,0,0-7.75,7.75v1.543h-6.406l-3.1,19.857,27.317-.324.91,5.287h-21.947l.457-2.681-7.2.034-1.658,9.734h38.755Zm-22.152-14.218a6.085,6.085,0,0,1,12.17,0v1.543h-12.17Z" transform="translate(7211.17 2633.008)" fill="#b31919"/>
  </g>
</svg>
